<svg id="logo" xmlns="http://www.w3.org/2000/svg" width="152px" height="52px" viewBox="0 0 152 52" version="1.1" fill="#fff">
  <g id="cartesi" transform="translate(0.000000, 0.209144)">
      <g id="Group" transform="translate(0.000000, 16.135198)">
          <polygon id="Path_76" points="151.23038 9.36371308 151.23038 34.3763713 147.125738 34.3763713 147.125738 9.36371308"></polygon>
          <rect id="Rectangle_235" x="146.227848" y="0" width="5.7721519" height="5.25907173"></rect>
          <path d="M105.066406,8.46582278 C112.352997,8.46582278 116.854008,13.553245 116.854008,20.9705242 L116.854008,22.8366135 L96.9211017,22.8366135 C97.020836,27.9941517 100.284144,31.8295011 105.174119,31.8295011 C109.869612,31.8295011 112.234313,28.6342114 112.674142,26.1280624 L116.644566,26.1280624 L116.644566,26.8642813 C115.959391,30.0074848 112.695086,35.1459916 105.163148,35.1459916 C97.8765568,35.1459916 92.7392405,30.0585694 92.7392405,21.8059072 C92.7392405,13.553245 97.8765568,8.46582278 105.066406,8.46582278 Z M112.673145,19.5391546 C112.526535,15.2169992 109.907511,11.7823132 105.066406,11.7823132 C100.321046,11.7823132 97.311063,15.2169992 96.9211017,19.5391546 L112.673145,19.5391546 Z" id="Path_77"></path>
          <path d="M131.34227,8.46582278 C137.767129,8.46582278 141.543635,11.5400273 142.18172,16.0576756 L142.18172,16.7959255 L138.209189,16.7959255 C137.965156,13.4542681 135.267795,11.7824377 131.343269,11.7824377 C127.468751,11.7824377 124.927411,13.3991748 124.927411,15.8132618 C124.927411,18.2273487 127.127705,19.046736 129.822066,19.5465823 L133.893611,20.2828287 C138.89428,21.1663244 142.379747,22.8872379 142.379747,27.3568047 C142.379747,31.7782901 138.650248,35.1459916 131.784328,35.1459916 C124.91841,35.1459916 120.797858,31.7772884 120.060759,26.9150569 L120.060759,26.1788104 L124.044293,26.1788104 C124.485352,30.0092952 127.564764,31.8303784 131.735322,31.8303784 C135.951886,31.8303784 138.208188,30.0593801 138.208188,27.6032218 C138.208188,25.2442281 136.19792,24.4088138 132.907479,23.8198166 L128.835934,23.0835702 C124.17231,22.2481559 120.943878,20.3309101 120.943878,16.0095942 C120.944878,11.5400273 124.92141,8.46582278 131.34227,8.46582278 Z" id="Path_78"></path>
          <path d="M78.3729958,1.28270042 L82.5652298,1.28270042 L82.5652298,9.30986315 L89.9438816,9.30986315 L89.9438816,12.9529371 L82.5652298,12.9529371 L82.5652298,30.2032867 L82.8901704,30.5962947 L90.1738397,30.5962947 L90.1738397,34.3763713 L83.9749722,34.3763713 C80.6005887,34.3763713 78.3759952,32.3173295 78.3759952,28.2462471 L78.3729958,1.28270042 Z" id="Path_79"></path>
          <path d="M35.2597518,16.6019515 C36.0911687,11.9291139 40.2092806,8.46582278 46.3839502,8.46582278 C52.5586198,8.46582278 56.8236287,11.9321203 56.8236287,18.0269514 L56.8236287,34.3924051 L52.6335672,34.3924051 L52.6335672,30.6525316 L52.3627572,30.6525316 C51.2875112,32.4212552 48.6873349,35.1459916 43.4929777,35.1459916 C38.1507244,35.1459916 34.3763713,32.1697257 34.3763713,27.696308 C34.3763713,23.0234705 38.1507244,20.8168248 43.2471501,20.3277953 L52.7544825,19.5351266 L52.7544825,17.9257384 C52.7544825,13.8481541 50.2062696,11.7076477 46.2850196,11.7076477 C42.3158032,11.7076477 39.6796521,13.8481541 39.2379618,17.3364979 L35.2597518,17.3364979 L35.2597518,16.6019515 Z M44.2204675,31.8400316 C48.778271,31.8400316 52.7524839,29.2014768 52.7524839,23.5495781 L52.7524839,22.8611286 L43.8327394,23.4834388 C40.6070016,23.7780591 38.3545814,24.6138186 38.3545814,27.512922 C38.3545814,30.7727848 40.8398383,31.8410338 44.2224661,31.8410338 L44.2204675,31.8400316 Z" id="Path_80"></path>
          <path d="M65.7619267,9.36371308 L65.7619267,12.9973829 L66.1008707,12.9973829 C66.9847244,11.1366486 68.5004737,9.3726925 72.2318564,9.3726925 L74.7814346,9.3726925 L74.7814346,12.9973829 L72.27085,12.9973829 C67.5636287,12.9973829 65.7489289,15.6812301 65.7489289,20.7795421 L65.7489289,34.3763713 L61.5696203,34.3763713 L61.5696203,9.36371308 L65.7619267,9.36371308 Z" id="Path_81"></path>
          <path d="M16.2218149,0 C25.8062964,0 30.0655103,6.06786178 30.6555401,10.8125356 L30.6555401,11.5296375 L26.6733399,11.5296375 C26.2733199,8.10715141 23.4931802,3.4944963 16.2228149,3.4944963 C9.02245326,3.4944963 3.98220005,8.74424189 3.98220005,17.5724957 C3.98220005,26.4007495 8.94444934,31.6504951 16.1458111,31.6504951 C23.3471729,31.6504951 26.3193222,26.8738168 26.8633496,23.4273272 L30.6565401,23.4273272 L30.6565401,24.1444291 C29.9485045,28.7450825 25.9003012,35.1459916 16.2228149,35.1459916 C5.68028536,35.1469917 0,27.3548851 0,17.581497 C0,6.8889784 6.59133113,0 16.2218149,0 Z" id="Path_82"></path>
      </g>
      <g id="Group-2" transform="translate(1.106160, 0.000000)">
          <path d="M0,0 L0,9.83604083 L1.24261603,9.83604083 L1.24261603,5.65590726 L4.28902954,5.65590726 C6.01065397,5.65590726 7.3835443,4.63108299 7.3835443,2.8212729 C7.3835443,1.01079478 6.01065397,0 4.28902954,0 L0,0 Z M1.24261603,1.05889605 L4.09796053,1.05889605 C5.3272151,1.05889605 6.14694089,1.69423347 6.14694089,2.82795371 C6.14694089,3.95499296 5.3272151,4.59701138 4.09796053,4.59701138 L1.24261603,4.59701138 L1.24261603,1.05889605 Z" id="Shape"></path>
          <polygon id="Path" points="68.0909601 2.87605498 68.0909601 3.08048527 70.8908548 9.8494023 69.8185974 12.3633615 69.8185974 12.5684599 71.0137802 12.5684599 74.9413822 3.08048527 74.9413822 2.87605498 73.7528801 2.87605498 71.5876551 8.39500711 71.4787591 8.39500711 69.3135341 2.87605498"></polygon>
          <path d="M60.434258,0 L60.434258,9.83604083 L61.6087304,9.83604083 L61.6087304,8.88002813 L61.6909036,8.88002813 C62.2233578,9.68572441 63.0704745,9.99303806 64.0679076,9.99303806 C65.8777179,9.99303806 67.2646377,8.76378348 67.2646377,6.35938822 C67.2646377,3.94831233 65.8777179,2.71838955 64.0679076,2.71838955 C63.0911848,2.71838955 62.2507487,3.01902255 61.7182945,3.79799574 L61.6361215,3.79799574 L61.6361215,0 L60.434258,0 Z M61.5953691,6.35938822 C61.5953691,4.66515475 62.4965996,3.71582287 63.8220567,3.71582287 C65.1535267,3.71582287 66.0554253,4.66515475 66.0554253,6.35938822 C66.0554253,8.04627286 65.1535267,8.99560491 63.8220567,8.99560491 C62.4965996,8.99560491 61.5953691,8.04627286 61.5953691,6.35938822 Z" id="Shape"></path>
          <path d="M54.7719903,0 L53.5694586,0 L53.5694586,3.79799574 L53.4879538,3.79799574 C52.9548313,3.01902255 52.1217441,2.71838955 51.1383404,2.71838955 C49.3278623,2.71838955 47.9482914,3.94831233 47.9482914,6.35938822 C47.9482914,8.76378348 49.3278623,9.99303806 51.1383404,9.99303806 C52.1351057,9.99303806 52.9822222,9.68572441 53.5153447,8.88002813 L53.6035304,8.88002813 L53.6035304,9.83604083 L54.7719903,9.83604083 L54.7719903,0 Z M53.6175599,6.35938822 C53.6175599,8.04627286 52.7156612,8.99560491 51.3841913,8.99560491 C50.0587343,8.99560491 49.1575036,8.04627286 49.1575036,6.35938822 C49.1575036,4.66515475 50.0587343,3.71582287 51.3841913,3.71582287 C52.7156612,3.71582287 53.6175599,4.66515475 53.6175599,6.35938822 Z" id="Shape"></path>
          <path d="M40.2164249,6.35270741 C40.2164249,8.72236287 41.5412138,9.9997187 43.6042237,9.9997187 C45.6946247,9.9997187 46.5003208,8.71568222 46.657318,7.86188467 L46.657318,7.65678617 L45.5783798,7.65678617 C45.4688158,8.29947261 44.8748988,9.03034454 43.5908623,9.03034454 C42.2380141,9.03034454 41.4049271,8.10105494 41.3775359,6.65334041 L46.8009538,6.65334041 L46.8009538,6.05207459 C46.8009538,4.00309423 45.6605528,2.7117089 43.5908623,2.7117089 C41.5278525,2.7117089 40.2164249,3.98906474 40.2164249,6.35270741 Z M41.3982463,5.7033405 C41.4937808,4.52886783 42.2587245,3.67507028 43.5835135,3.67507028 C44.9363616,3.67507028 45.6398426,4.51483834 45.653204,5.7033405 L41.3982463,5.7033405 Z" id="Shape"></path>
          <path d="M35.3330113,2.87605498 L35.3330113,9.83604083 L36.5348748,9.83604083 L36.5348748,6.01800282 C36.5348748,4.60369202 37.047287,3.88684959 38.3520337,3.88684959 L39.2946849,3.88684959 L39.2946849,2.84866385 L38.3246428,2.84866385 C37.2791084,2.84866385 36.8421886,3.21744022 36.6030183,3.70914206 L36.4941224,3.70914206 L36.4941224,2.87605498 L35.3330113,2.87605498 Z" id="Path"></path>
          <path d="M27.1842654,6.35270741 C27.1842654,8.72236287 28.5090543,9.9997187 30.5720641,9.9997187 C32.6624651,9.9997187 33.4681613,8.71568222 33.6251584,7.86188467 L33.6251584,7.65678617 L32.5462204,7.65678617 C32.4366563,8.29947261 31.8427394,9.03034454 30.5587029,9.03034454 C29.2058546,9.03034454 28.3727675,8.10105494 28.3453765,6.65334041 L33.7687942,6.65334041 L33.7687942,6.05207459 C33.7687942,4.00309423 32.6283934,2.7117089 30.5587029,2.7117089 C28.4956931,2.7117089 27.1842654,3.98906474 27.1842654,6.35270741 Z M28.3660867,5.7033405 C28.4616212,4.52886783 29.226565,3.67507028 30.551354,3.67507028 C31.9042021,3.67507028 32.607683,4.51483834 32.6210445,5.7033405 L28.3660867,5.7033405 Z" id="Shape"></path>
          <polygon id="Path" points="16.3103736 2.87605498 16.3103736 3.08048527 18.1275324 9.83604083 19.575247 9.83604083 21.2627999 4.20084388 21.3783765 4.20084388 23.0726099 9.83604083 24.5203243 9.83604083 26.3374832 3.08048527 26.3374832 2.87605498 25.1970825 2.87605498 23.8168433 8.50390308 23.6872372 8.50390308 22.0003526 2.87605498 20.6815761 2.87605498 18.9946915 8.50390308 18.8650852 8.50390308 17.4855142 2.87605498"></polygon>
          <path d="M8.3805309,6.35938822 C8.3805309,8.70232076 9.80820315,9.9997187 11.9253269,9.9997187 C14.0357699,9.9997187 15.470791,8.70232076 15.470791,6.35938822 C15.470791,4.00977505 14.0357699,2.7117089 11.9253269,2.7117089 C9.80820315,2.7117089 8.3805309,4.00977505 8.3805309,6.35938822 Z M9.59642402,6.35938822 C9.59642402,4.63108299 10.5317264,3.70246141 11.9253269,3.70246141 C13.3122467,3.70246141 14.2475491,4.63108299 14.2475491,6.35938822 C14.2475491,8.08034463 13.3122467,9.01631505 11.9253269,9.01631505 C10.5317264,9.01631505 9.59642402,8.08034463 9.59642402,6.35938822 Z" id="Shape"></path>
      </g>
  </g>
</svg>