<svg width="49" height="48" viewBox="0 0 49 48" fill="none" xmlns="http://www.w3.org/2000/svg">
<path d="M20.2178 22.9186C21.4805 21.6257 23.6103 21.5379 24.9793 22.9186C24.9889 22.9186 24.9889 22.9186 24.9889 22.9186C25.3745 23.3074 25.654 23.7837 25.8179 24.2892C26.2227 24.2212 26.5793 24.0462 26.8492 23.774L28.1794 22.4423C27.8806 21.859 27.495 21.3244 27.0324 20.848C24.5028 18.3491 20.5927 18.4191 18.1647 20.848L13.3454 25.7085C10.9016 28.1931 10.902 32.1674 13.3454 34.6517C15.809 37.1163 19.7497 37.1159 22.213 34.6517L26.7528 30.0732C25.4275 30.2906 24.1549 30.1684 22.9745 29.7524L20.16 32.5811C18.8876 33.874 16.6707 33.874 15.3888 32.5811C14.0763 31.2578 14.0776 29.1014 15.3888 27.779C15.4852 27.6818 20.54 22.5942 20.2178 22.9186Z" fill="#1C1B1F"/>
<path d="M27.8073 25.0811C26.5594 26.3584 24.4321 26.4789 23.0458 25.0811C23.0361 25.0811 23.0361 25.0811 23.0361 25.0811C22.6506 24.6923 22.371 24.216 22.2072 23.7105C21.8024 23.7785 21.4457 23.9535 21.1758 24.2257L19.8457 25.5574C20.1445 26.1406 20.5301 26.6753 20.9927 27.1516C23.5463 29.6744 27.4555 29.5571 29.8603 27.1516L34.6797 22.2913C37.1234 19.8067 37.1231 15.8325 34.6797 13.3483C32.216 10.8838 28.2754 10.8841 25.8121 13.3483L21.2722 17.9267C22.5976 17.7093 23.8702 17.8314 25.0506 18.2475L27.8651 15.4188C29.1374 14.1259 31.3543 14.1259 32.6363 15.4188C33.9488 16.7421 33.9475 18.8984 32.6363 20.2208C32.5399 20.318 27.485 25.4054 27.8073 25.0811Z" fill="#1C1B1F"/>
</svg>
