<svg width="49" height="48" viewBox="0 0 49 48" fill="none" xmlns="http://www.w3.org/2000/svg">
<g clip-path="url(#clip0_525_1539)">
<path d="M24.0127 9C32.297 9 39.0127 15.7157 39.0127 24C39.0127 32.2843 32.297 39 24.0127 39C15.7284 39 9.0127 32.2843 9.0127 24C9.0127 15.7157 15.7284 9 24.0127 9ZM30.675 18C30.1035 18.0101 29.2268 18.3111 25.0074 20.0437C23.5296 20.6506 20.5762 21.9066 16.147 23.8117C15.4278 24.0941 15.051 24.3703 15.0167 24.6404C14.9508 25.159 15.7071 25.3205 16.6586 25.6258C17.4343 25.8748 18.4778 26.166 19.0203 26.1776C19.5124 26.1881 20.0616 25.9878 20.668 25.5767C24.8063 22.8188 26.9425 21.4248 27.0766 21.3948C27.1712 21.3736 27.3023 21.3469 27.3912 21.4249C27.48 21.5028 27.4713 21.6505 27.4619 21.6901C27.3866 22.0068 23.4992 25.4977 23.2754 25.7271L23.1682 25.835C22.3438 26.6492 21.5106 27.1808 22.9482 28.116C24.2462 28.9605 25.0016 29.4992 26.3388 30.3646C27.1934 30.9176 27.8634 31.5735 28.7457 31.4933C29.1517 31.4564 29.571 31.0795 29.784 29.9555C30.2874 27.299 31.2767 21.5431 31.5054 19.1713C31.5254 18.9635 31.5002 18.6976 31.48 18.5808C31.4597 18.4641 31.4174 18.2977 31.2637 18.1746C31.0817 18.0288 30.8007 17.998 30.675 18Z" fill="black"/>
</g>
<defs>
<clipPath id="clip0_525_1539">
<rect width="30" height="30" fill="white" transform="translate(9.0127 9)"/>
</clipPath>
</defs>
</svg>
