<svg width="49" height="48" viewBox="0 0 49 48" fill="none" xmlns="http://www.w3.org/2000/svg">
<g clip-path="url(#clip0_525_1535)">
<path d="M22.4026 26.6035L14.4885 36.1877C14.2789 36.4389 13.9846 36.5675 13.6886 36.5675C13.441 36.5675 13.1924 36.4775 12.9914 36.2942C12.5498 35.8914 12.5042 35.191 12.8896 34.7296L21.0555 24.8439L22.4026 26.6035ZM25.2815 23.1562L33.4473 13.2705C33.8327 12.809 33.7871 12.1087 33.3456 11.7059C32.9042 11.3032 32.2335 11.3508 31.8484 11.8122L23.9344 21.3964L25.2815 23.1562Z" fill="black"/>
<path d="M35.0357 36.5676H29.2863C28.9503 36.5676 28.6327 36.4144 28.423 36.1514L10.4376 13.2341C10.1721 12.9013 10.1203 12.4451 10.3045 12.061C10.4886 11.6769 10.8759 11.4325 11.3009 11.4325H17.0503C17.3863 11.4325 17.7038 11.5857 17.9136 11.8487L35.899 34.766C36.1645 35.0988 36.2162 35.555 36.0321 35.9391C35.848 36.3232 35.4607 36.5676 35.0357 36.5676ZM29.8177 34.3498H32.7352L16.5189 13.6503H13.6014L29.8177 34.3498Z" fill="black"/>
</g>
<defs>
<clipPath id="clip0_525_1535">
<rect width="30" height="30" fill="white" transform="translate(9.0127 9)"/>
</clipPath>
</defs>
</svg>
